<?xml version="1.0" encoding="utf-8"?>
<!-- Generator: Adobe Illustrator 27.0.0, SVG Export Plug-In . SVG Version: 6.00 Build 0)  -->
<svg version="1.1" id="Capa_1" xmlns="http://www.w3.org/2000/svg" xmlns:xlink="http://www.w3.org/1999/xlink" x="0px" y="0px"
	 viewBox="0 0 487.4 124.9" style="enable-background:new 0 0 487.4 124.9;" xml:space="preserve">
<style type="text/css">
	.st0{display:none;}
	.st1{fill:#FFFFFF;}
	.st2{fill:none;}
	.st3{enable-background:new    ;}
</style>
<rect class="st0" width="487.4" height="124.9"/>
<g id="Logo_Wolf">
	<path class="st1" d="M38,73.9c1.8,1.7,5,2.7,9,3.3c-2.3-4.5-5.5-9-9.6-13.4C37.1,68.1,36.8,72.8,38,73.9"/>
	<path class="st1" d="M32.9,26.6c6.5,5.9,9.9,13.6,13.6,21c-0.1-1.4-0.2-2.8,0-4c2,3.9,4.4,7.1,7.5,9.2c3.1-2.1,5.5-5.3,7.5-9.2
		c0.2,1.2,0.1,2.6,0,4c3.7-7.4,7.1-15,13.6-21c4.3,3.8,7.1,9.5,10.1,15.3c-1.9-8.4-5-16.3-9.2-23.6c-5.9,3.3-11.3,8-16.1,14.4h-0.2
		l0,0c-1.9-0.2-3.8-0.3-5.7-0.3s-3.8,0.1-5.7,0.3l0,0h-0.2c-4.7-6.3-10.1-11-16.1-14.4c-4.2,7.3-7.3,15.2-9.2,23.6
		C25.8,36.1,28.6,30.4,32.9,26.6"/>
	<path class="st1" d="M62.8,94.2c-2.3-2.2-5.1-3.7-8.7-4.3c-3.5,0.6-6.4,2.1-8.7,4.3c2.4,2.3,5.3,3.9,8.7,4.7
		C57.5,98.1,60.3,96.4,62.8,94.2"/>
	<path class="st1" d="M70.8,63.8c-4.1,4.4-7.3,8.9-9.6,13.4c3.9-0.6,7.1-1.6,9-3.3C71.3,72.8,71,68.1,70.8,63.8"/>
	<path class="st1" d="M93,64.4c0.2-4.9-1.6-13-3.6-21.5c-2.1,1.9-3.7,4.3-4.6,7.5c0.5,6.9-0.6,15.3-2.4,24.4c0.7-1.5,1.6-2.6,2.6-3
		c0.5,1.6,0.5,3.3,0,4.9c-4.7,8.5-15.5,19-28.3,30.1h-2.5h-2.5C38.7,95.6,27.9,85.1,23.2,76.6c-0.5-1.6-0.5-3.2,0-4.9
		c1,0.3,1.8,1.4,2.6,3c-1.8-9.1-3-17.5-2.4-24.4c-0.9-3.2-2.5-5.7-4.6-7.5c-2.1,8.6-3.8,16.6-3.6,21.5c-1.2,1.4-2.8,2.6-4.7,3.7
		c3.8,6.4,7.8,12,12.4,16c6.7,7.5,17,15.5,28.5,23.6h5.5c11.5-8.1,21.8-16.1,28.5-23.6c4.5-3.9,8.6-9.6,12.4-16
		C95.8,67.1,94.2,65.8,93,64.4"/>
</g>
<rect x="118.3" y="10.7" class="st2" width="356.7" height="104.4"/>
<g class="st3">
	<path class="st1" d="M147,77.2h-6.3l-2.5-6.5h-11.4l-2.4,6.5h-6.1l11.2-28.6h6.1L147,77.2z M136.4,65.9l-3.9-10.6l-3.9,10.6H136.4z
		"/>
	<path class="st1" d="M150.2,77.2V48.6h5.6l11.7,19.1V48.6h5.4v28.6h-5.8l-11.5-18.7v18.7H150.2z"/>
	<path class="st1" d="M178.8,77.2V48.6h5.8v28.6H178.8z"/>
	<path class="st1" d="M190,77.2V48.6h8.7l5.2,19.5l5.1-19.5h8.7v28.6h-5.4V54.7l-5.7,22.5h-5.6l-5.7-22.5v22.5H190z"/>
	<path class="st1" d="M223.4,77.2V48.6h21.2v4.8h-15.4v6.3h14.4v4.8h-14.4v7.8h16v4.8H223.4z"/>
	<path class="st1" d="M265.3,77.2l-6.8-28.6h5.9l4.3,19.7l5.2-19.7h6.9l5,20l4.4-20h5.8l-7,28.6h-6.1l-5.7-21.4l-5.7,21.4H265.3z"/>
	<path class="st1" d="M297.8,63.1c0-2.9,0.4-5.4,1.3-7.3c0.7-1.5,1.5-2.8,2.7-3.9s2.4-2,3.7-2.6c1.8-0.8,3.8-1.1,6.2-1.1
		c4.2,0,7.6,1.3,10.1,3.9s3.8,6.3,3.8,10.9c0,4.6-1.3,8.2-3.8,10.8s-5.9,3.9-10.1,3.9c-4.3,0-7.6-1.3-10.2-3.9
		S297.8,67.7,297.8,63.1z M303.8,62.9c0,3.2,0.7,5.7,2.2,7.4s3.4,2.5,5.7,2.5s4.2-0.8,5.7-2.5s2.2-4.2,2.2-7.5
		c0-3.3-0.7-5.7-2.2-7.3s-3.3-2.4-5.7-2.4s-4.3,0.8-5.8,2.5S303.8,59.6,303.8,62.9z"/>
	<path class="st1" d="M330.3,77.2V48.8h5.8v23.6h14.4v4.8H330.3z"/>
	<path class="st1" d="M354.6,77.2V48.6h19.6v4.8h-13.8v6.8h12v4.8h-12v12.2H354.6z"/>
</g>
</svg>
